<svg width="66" height="54" viewBox="0 0 66 54" fill="none" xmlns="http://www.w3.org/2000/svg">
<path d="M0 7.95C0 5.1969 0 3.82035 0.527277 2.76511C1.01124 1.79654 1.79654 1.01124 2.76511 0.527277C3.82035 0 5.1969 0 7.95 0H58.05C60.8031 0 62.1796 0 63.2349 0.527277C64.2035 1.01124 64.9888 1.79654 65.4727 2.76511C66 3.82035 66 5.1969 66 7.95V46.05C66 48.8031 66 50.1796 65.4727 51.2349C64.9888 52.2035 64.2035 52.9888 63.2349 53.4727C62.1796 54 60.8031 54 58.05 54H7.95C5.1969 54 3.82035 54 2.76511 53.4727C1.79654 52.9888 1.01124 52.2035 0.527277 51.2349C0 50.1796 0 48.8031 0 46.05V7.95Z" fill="#FFFEFE"/>
</svg>
