<svg width="381" height="208" viewBox="0 0 381 208" fill="none" xmlns="http://www.w3.org/2000/svg">
<g filter="url(#filter0_d_239_404)">
<path d="M4 0H377V200H4V0Z" fill="white"/>
</g>
<g filter="url(#filter1_d_239_404)">
<path d="M153.409 98L155.227 87.0909H156.498L154.68 98H153.409ZM156.321 85.1946C156.056 85.1946 155.831 85.1046 155.646 84.9247C155.466 84.7448 155.379 84.527 155.383 84.2713C155.393 84.0298 155.49 83.8215 155.675 83.6463C155.864 83.4664 156.086 83.3764 156.342 83.3764C156.607 83.3764 156.832 83.4687 157.017 83.6534C157.202 83.8333 157.289 84.0511 157.28 84.3068C157.275 84.5483 157.178 84.7566 156.988 84.9318C156.799 85.107 156.577 85.1946 156.321 85.1946ZM158.024 98L159.842 87.0909H161.07L160.786 88.767H160.9C161.217 88.2036 161.658 87.7609 162.221 87.4389C162.785 87.1122 163.424 86.9489 164.139 86.9489C164.887 86.9489 165.474 87.1264 165.9 87.4815C166.326 87.8319 166.61 88.3149 166.752 88.9304H166.845C167.186 88.3243 167.666 87.8437 168.286 87.4886C168.907 87.1288 169.615 86.9489 170.41 86.9489C171.419 86.9489 172.164 87.2685 172.647 87.9077C173.13 88.5469 173.27 89.4749 173.066 90.6918L171.845 98H170.58L171.802 90.6918C171.939 89.83 171.828 89.1837 171.468 88.7528C171.108 88.322 170.569 88.1065 169.849 88.1065C169.016 88.1065 168.327 88.3622 167.782 88.8736C167.242 89.3802 166.909 90.0289 166.781 90.8196L165.58 98H164.288L165.531 90.5781C165.649 89.8395 165.543 89.2429 165.211 88.7884C164.884 88.3338 164.347 88.1065 163.599 88.1065C163.092 88.1065 162.616 88.232 162.171 88.483C161.731 88.7292 161.357 89.0724 161.049 89.5128C160.746 89.9484 160.547 90.4479 160.453 91.0114L159.288 98H158.024ZM178.21 98.2486C177.552 98.2486 176.972 98.1207 176.47 97.8651C175.968 97.6046 175.594 97.2306 175.348 96.7429C175.106 96.2505 175.04 95.6539 175.149 94.9531C175.244 94.4134 175.424 93.9588 175.689 93.5895C175.959 93.2202 176.3 92.9171 176.711 92.6804C177.123 92.4389 177.597 92.2495 178.132 92.1122C178.667 91.9749 179.249 91.8707 179.879 91.7997C180.495 91.724 181.02 91.6577 181.456 91.6009C181.891 91.544 182.23 91.4541 182.471 91.331C182.713 91.2079 182.857 91.009 182.905 90.7344L182.947 90.4787C183.07 89.7353 182.957 89.1506 182.606 88.7244C182.256 88.2936 181.669 88.0781 180.845 88.0781C180.059 88.0781 179.377 88.2533 178.8 88.6037C178.227 88.9493 177.8 89.3542 177.521 89.8182L176.399 89.3849C176.74 88.7884 177.159 88.3125 177.656 87.9574C178.153 87.5975 178.686 87.3395 179.254 87.1832C179.822 87.0223 180.383 86.9418 180.937 86.9418C181.354 86.9418 181.778 86.9962 182.209 87.1051C182.64 87.214 183.025 87.4034 183.366 87.6733C183.712 87.9384 183.965 88.3101 184.126 88.7884C184.292 89.2618 184.316 89.8632 184.197 90.5923L182.961 98H181.697L181.988 96.2741H181.91C181.711 96.5961 181.437 96.9086 181.086 97.2116C180.741 97.5147 180.327 97.7633 179.844 97.9574C179.361 98.1515 178.816 98.2486 178.21 98.2486ZM178.53 97.0909C179.202 97.0909 179.81 96.9418 180.355 96.6435C180.904 96.3452 181.354 95.9498 181.704 95.4574C182.059 94.9602 182.287 94.4134 182.386 93.8168L182.649 92.2401C182.545 92.33 182.374 92.4105 182.138 92.4815C181.906 92.5526 181.643 92.6165 181.349 92.6733C181.06 92.7254 180.769 92.7704 180.476 92.8082C180.187 92.8461 179.931 92.8793 179.709 92.9077C179.079 92.9834 178.53 93.1018 178.061 93.2628C177.597 93.4238 177.225 93.6463 176.946 93.9304C176.666 94.2098 176.491 94.5696 176.42 95.0099C176.311 95.6728 176.456 96.1866 176.854 96.5511C177.256 96.911 177.815 97.0909 178.53 97.0909ZM189.805 102.318C189.061 102.318 188.424 102.221 187.894 102.027C187.364 101.838 186.933 101.577 186.601 101.246C186.275 100.914 186.036 100.543 185.884 100.131L187.035 99.456C187.139 99.7306 187.297 100 187.51 100.266C187.724 100.531 188.024 100.749 188.412 100.919C188.801 101.094 189.31 101.182 189.939 101.182C190.901 101.182 191.727 100.938 192.418 100.45C193.109 99.9673 193.54 99.2192 193.711 98.206L194.094 95.7486H193.981C193.787 96.08 193.526 96.4115 193.199 96.7429C192.873 97.0696 192.468 97.3419 191.985 97.5597C191.507 97.7775 190.941 97.8864 190.287 97.8864C189.416 97.8864 188.678 97.6709 188.072 97.2401C187.465 96.8092 187.037 96.1937 186.786 95.3935C186.535 94.5885 186.504 93.6297 186.694 92.517C186.874 91.4138 187.219 90.4432 187.731 89.6051C188.247 88.767 188.881 88.1136 189.634 87.6449C190.392 87.1761 191.22 86.9418 192.12 86.9418C192.787 86.9418 193.323 87.0601 193.725 87.2969C194.127 87.5289 194.433 87.8177 194.641 88.1634C194.854 88.509 195.008 88.8452 195.103 89.1719H195.231L195.572 87.0909H196.807L194.961 98.2841C194.805 99.2074 194.483 99.9673 193.995 100.564C193.507 101.161 192.901 101.601 192.177 101.885C191.457 102.174 190.666 102.318 189.805 102.318ZM190.572 96.7287C191.272 96.7287 191.902 96.5606 192.461 96.2244C193.024 95.8835 193.495 95.3982 193.874 94.7685C194.258 94.134 194.52 93.3764 194.662 92.4957C194.805 91.6435 194.797 90.8883 194.641 90.2301C194.49 89.5672 194.194 89.0464 193.753 88.6676C193.318 88.2841 192.745 88.0923 192.035 88.0923C191.301 88.0923 190.652 88.2888 190.089 88.6818C189.53 89.0748 189.068 89.6051 188.704 90.2727C188.344 90.9356 188.095 91.6766 187.958 92.4957C187.825 93.3291 187.83 94.0653 187.972 94.7045C188.119 95.339 188.408 95.8362 188.839 96.196C189.269 96.5511 189.847 96.7287 190.572 96.7287ZM202.718 98.2273C201.7 98.2273 200.86 97.9905 200.197 97.517C199.534 97.0388 199.07 96.3783 198.805 95.5355C198.54 94.688 198.499 93.7126 198.684 92.6094C198.869 91.5109 199.233 90.5355 199.778 89.6832C200.322 88.8262 200.995 88.1562 201.795 87.6733C202.595 87.1856 203.464 86.9418 204.401 86.9418C204.993 86.9418 205.547 87.0507 206.063 87.2685C206.579 87.4815 207.017 87.8106 207.377 88.2557C207.742 88.696 207.995 89.2524 208.137 89.9247C208.279 90.5923 208.275 91.383 208.123 92.2969L208.024 92.9219H199.501L199.678 91.8068H206.916C207.034 91.1061 207.001 90.4763 206.816 89.9176C206.632 89.3589 206.317 88.9162 205.872 88.5895C205.431 88.258 204.884 88.0923 204.231 88.0923C203.563 88.0923 202.931 88.2794 202.335 88.6534C201.743 89.0275 201.241 89.5152 200.829 90.1165C200.422 90.7131 200.159 91.3499 200.041 92.027L199.899 92.8651C199.747 93.7884 199.766 94.5625 199.955 95.1875C200.145 95.8078 200.488 96.2765 200.985 96.5938C201.482 96.911 202.119 97.0696 202.896 97.0696C203.417 97.0696 203.888 96.9891 204.309 96.8281C204.731 96.6671 205.097 96.4517 205.41 96.1818C205.722 95.9072 205.973 95.6065 206.163 95.2798L207.292 95.6705C207.051 96.1297 206.71 96.5535 206.269 96.9418C205.834 97.33 205.315 97.6425 204.714 97.8793C204.117 98.1113 203.452 98.2273 202.718 98.2273ZM209.957 98L211.775 87.0909H213.004L212.72 88.767H212.834C213.151 88.2036 213.591 87.7609 214.155 87.4389C214.718 87.1122 215.357 86.9489 216.072 86.9489C216.82 86.9489 217.407 87.1264 217.834 87.4815C218.26 87.8319 218.544 88.3149 218.686 88.9304H218.778C219.119 88.3243 219.6 87.8437 220.22 87.4886C220.84 87.1288 221.548 86.9489 222.344 86.9489C223.352 86.9489 224.098 87.2685 224.581 87.9077C225.064 88.5469 225.203 89.4749 225 90.6918L223.778 98H222.514L223.736 90.6918C223.873 89.83 223.762 89.1837 223.402 88.7528C223.042 88.322 222.502 88.1065 221.782 88.1065C220.949 88.1065 220.26 88.3622 219.716 88.8736C219.176 89.3802 218.842 90.0289 218.714 90.8196L217.514 98H216.221L217.464 90.5781C217.583 89.8395 217.476 89.2429 217.145 88.7884C216.818 88.3338 216.281 88.1065 215.532 88.1065C215.026 88.1065 214.55 88.232 214.105 88.483C213.665 88.7292 213.291 89.0724 212.983 89.5128C212.68 89.9484 212.481 90.4479 212.386 91.0114L211.221 98H209.957Z" fill="black"/>
</g>
<defs>
<filter id="filter0_d_239_404" x="0" y="0" width="381" height="208" filterUnits="userSpaceOnUse" color-interpolation-filters="sRGB">
<feFlood flood-opacity="0" result="BackgroundImageFix"/>
<feColorMatrix in="SourceAlpha" type="matrix" values="0 0 0 0 0 0 0 0 0 0 0 0 0 0 0 0 0 0 127 0" result="hardAlpha"/>
<feOffset dy="4"/>
<feGaussianBlur stdDeviation="2"/>
<feComposite in2="hardAlpha" operator="out"/>
<feColorMatrix type="matrix" values="0 0 0 0 0 0 0 0 0 0 0 0 0 0 0 0 0 0 0.25 0"/>
<feBlend mode="normal" in2="BackgroundImageFix" result="effect1_dropShadow_239_404"/>
<feBlend mode="normal" in="SourceGraphic" in2="effect1_dropShadow_239_404" result="shape"/>
</filter>
<filter id="filter1_d_239_404" x="149.409" y="83.3764" width="79.8963" height="26.9417" filterUnits="userSpaceOnUse" color-interpolation-filters="sRGB">
<feFlood flood-opacity="0" result="BackgroundImageFix"/>
<feColorMatrix in="SourceAlpha" type="matrix" values="0 0 0 0 0 0 0 0 0 0 0 0 0 0 0 0 0 0 127 0" result="hardAlpha"/>
<feOffset dy="4"/>
<feGaussianBlur stdDeviation="2"/>
<feComposite in2="hardAlpha" operator="out"/>
<feColorMatrix type="matrix" values="0 0 0 0 0 0 0 0 0 0 0 0 0 0 0 0 0 0 0.25 0"/>
<feBlend mode="normal" in2="BackgroundImageFix" result="effect1_dropShadow_239_404"/>
<feBlend mode="normal" in="SourceGraphic" in2="effect1_dropShadow_239_404" result="shape"/>
</filter>
</defs>
</svg>
