<svg width="33" height="32" viewBox="0 0 33 32" fill="none" xmlns="http://www.w3.org/2000/svg">
<path d="M33 16.2559C33 24.7636 25.6127 31.6606 16.5 31.6606C7.3873 31.6606 0 24.7636 0 16.2559C0 7.74808 7.3873 0.851166 16.5 0.851166C25.6127 0.851166 33 7.74808 33 16.2559Z" fill="#F3F3F3"/>
<path fill-rule="evenodd" clip-rule="evenodd" d="M19.8178 5.23105C18.8247 5.96876 17.8887 6.77973 17.0267 7.6494C16.9433 7.73378 16.8763 7.82831 16.8309 7.92584C16.7856 8.02336 16.763 8.12133 16.7649 8.21232L16.8349 11.7043L14.6751 11.3585C14.5138 11.3328 14.3234 11.3731 14.1447 11.4708C13.966 11.5685 13.8131 11.7159 13.7185 11.8814C11.8937 15.0709 10.6925 18.1752 10.8259 20.4132C10.8938 21.5491 11.3073 22.4832 12.183 23.0671C13.056 23.6505 14.3375 23.8498 16.0289 23.6351C19.7059 23.1688 22.8578 19.7845 24.061 16.0725C25.2824 12.3073 24.6275 7.98803 20.684 5.11525C20.5825 5.04104 20.4414 5.01207 20.284 5.03311C20.1265 5.05416 19.9621 5.12397 19.8178 5.23105Z" fill="#6A8E4E"/>
<path fill-rule="evenodd" clip-rule="evenodd" d="M16.5514 17.5631C16.6898 17.5948 16.8121 17.6466 16.9114 17.7154C17.0107 17.7842 17.085 17.8686 17.1301 17.964C17.1752 18.0593 17.1902 18.1636 17.1742 18.271C17.1582 18.3783 17.1116 18.4866 17.037 18.5897C16.1082 19.8718 14.5428 21.4851 12.8449 22.9695C11.1577 24.4444 9.24212 25.875 7.57514 26.7449C7.43903 26.8158 7.28877 26.8701 7.13297 26.9046C6.97716 26.9391 6.81885 26.9531 6.66708 26.9459C6.51531 26.9387 6.37305 26.9103 6.24841 26.8625C6.12378 26.8147 6.01922 26.7483 5.9407 26.6671C5.86218 26.5859 5.81124 26.4916 5.79078 26.3894C5.77033 26.2873 5.78077 26.1793 5.8215 26.0718C5.86222 25.9642 5.93245 25.8591 6.02816 25.7625C6.12387 25.6659 6.24319 25.5796 6.37931 25.5087C7.72823 24.8054 9.44835 23.5439 11.074 22.1225C12.6916 20.7076 14.1224 19.2187 14.9314 18.1042C15.0823 17.8965 15.3376 17.7228 15.6413 17.6214C15.9451 17.5199 16.2724 17.4989 16.5514 17.5631Z" fill="#B0D182"/>
</svg>
